<svg width="120" height="28" viewBox="0 0 120 28" fill="none" xmlns="http://www.w3.org/2000/svg">
<circle cx="7.36533" cy="21" r="7" fill="#4D96A9"/>
<circle cx="21.3653" cy="7" r="7" fill="#855FB1"/>
<path fill-rule="evenodd" clip-rule="evenodd" d="M116.437 25.757C115.72 25.8542 115.12 25.9028 114.635 25.9028C112.633 25.9028 111.121 25.4439 110.099 24.5261C109.076 23.6082 108.565 22.2531 108.565 20.4606V12.9127H105.183V8.53944H108.565V4.1338L113.687 3V8.53944H118.365V12.9127H113.687V19.4239C113.687 20.1798 113.85 20.7143 114.177 21.0275C114.503 21.3406 115.078 21.4972 115.9 21.4972C116.3 21.4972 116.679 21.4702 117.038 21.4162C117.396 21.3622 117.786 21.2704 118.207 21.1408V25.3845C117.744 25.5357 117.154 25.6599 116.437 25.757ZM44.4866 13.9493V25.6761H39.3653V8.53944H44.4866V9.64084C45.0767 9.16573 45.7247 8.80939 46.4308 8.57183C47.1368 8.33427 47.8797 8.21549 48.6594 8.21549C49.6921 8.21549 50.6352 8.42606 51.4888 8.84718C52.3423 9.26831 53.0536 9.84601 53.6226 10.5803C54.297 9.82441 55.0979 9.24131 56.0252 8.83099C56.9525 8.42066 57.9641 8.21549 59.06 8.21549C60.9568 8.21549 62.5111 8.86338 63.7229 10.1592C64.9347 11.4549 65.5406 13.107 65.5406 15.1155V25.6761H60.4193V15.8282C60.4193 14.8995 60.1717 14.1491 59.6765 13.5768C59.1812 13.0045 58.5226 12.7183 57.7007 12.7183C57.1316 12.7183 56.6153 12.8317 56.1516 13.0585C55.688 13.2852 55.2876 13.6038 54.9504 14.0141C54.9714 14.1869 54.9872 14.365 54.9978 14.5486C55.0083 14.7322 55.0136 14.9211 55.0136 15.1155V25.6761H49.8923V15.8282C49.8923 14.8995 49.6447 14.1491 49.1494 13.5768C48.6542 13.0045 47.9956 12.7183 47.1736 12.7183C46.6046 12.7183 46.0936 12.8209 45.6404 13.0261C45.1873 13.2312 44.8027 13.539 44.4866 13.9493ZM80.6672 25.3845C79.5608 25.7948 78.3121 26 76.9211 26C75.6566 26 74.4659 25.7732 73.3489 25.3197C72.2319 24.8662 71.2678 24.2399 70.4564 23.4408C69.645 22.6418 69.0022 21.6969 68.528 20.6063C68.0538 19.5157 67.8167 18.3549 67.8167 17.1239C67.8167 15.893 68.0433 14.7322 68.4964 13.6415C68.9495 12.5509 69.5659 11.6061 70.3457 10.807C71.1255 10.008 72.0475 9.38169 73.1118 8.92817C74.1761 8.47465 75.3194 8.24789 76.5418 8.24789C77.7642 8.24789 78.8917 8.48545 79.9243 8.96056C80.957 9.43568 81.8475 10.0836 82.5956 10.9042C83.3438 11.7249 83.9286 12.7129 84.3501 13.8683C84.7716 15.0237 84.9824 16.2709 84.9824 17.6099V18.9056H73.0644C73.4016 19.7047 73.9285 20.358 74.645 20.8655C75.3616 21.373 76.2046 21.6268 77.174 21.6268C77.8695 21.6268 78.5018 21.5134 79.0708 21.2866C79.6398 21.0599 80.1246 20.7413 80.525 20.331L83.9075 23.4085C82.8538 24.3155 81.7737 24.9742 80.6672 25.3845ZM79.956 15.2451H72.9696C73.2225 14.3812 73.6545 13.7117 74.2657 13.2366C74.8769 12.7615 75.604 12.5239 76.447 12.5239C77.2689 12.5239 77.9907 12.7723 78.6124 13.269C79.2341 13.7657 79.682 14.4244 79.956 15.2451ZM99.4768 25.3845C98.3703 25.7948 97.1216 26 95.7307 26C94.4662 26 93.2754 25.7732 92.1584 25.3197C91.0415 24.8662 90.0773 24.2399 89.2659 23.4408C88.4545 22.6418 87.8117 21.6969 87.3375 20.6063C86.8633 19.5157 86.6262 18.3549 86.6262 17.1239C86.6262 15.893 86.8528 14.7322 87.3059 13.6415C87.759 12.5509 88.3755 11.6061 89.1552 10.807C89.935 10.008 90.8571 9.38169 91.9213 8.92817C92.9856 8.47465 94.129 8.24789 95.3513 8.24789C96.5737 8.24789 97.7012 8.48545 98.7339 8.96056C99.7666 9.43568 100.657 10.0836 101.405 10.9042C102.153 11.7249 102.738 12.7129 103.16 13.8683C103.581 15.0237 103.792 16.2709 103.792 17.6099V18.9056H91.8739C92.2111 19.7047 92.738 20.358 93.4546 20.8655C94.1711 21.373 95.0141 21.6268 95.9836 21.6268C96.6791 21.6268 97.3113 21.5134 97.8803 21.2866C98.4494 21.0599 98.9341 20.7413 99.3345 20.331L102.717 23.4085C101.663 24.3155 100.583 24.9742 99.4768 25.3845ZM98.7655 15.2451H91.7791C92.032 14.3812 92.464 13.7117 93.0752 13.2366C93.6864 12.7615 94.4135 12.5239 95.2565 12.5239C96.0784 12.5239 96.8002 12.7723 97.4219 13.269C98.0437 13.7657 98.4915 14.4244 98.7655 15.2451Z" fill="#28283D"/>
</svg>
